<?xml version="1.0" standalone="no"?>
<!DOCTYPE svg PUBLIC "-//W3C//DTD SVG 20010904//EN"
 "http://www.w3.org/TR/2001/REC-SVG-20010904/DTD/svg10.dtd">
<svg version="1.0" xmlns="http://www.w3.org/2000/svg"
 width="1024.000000pt" height="1024.000000pt" viewBox="0 0 1024.000000 1024.000000"
 preserveAspectRatio="xMidYMid meet">
<metadata>
Created by potrace 1.16, written by Peter Selinger 2001-2019
</metadata>
<g transform="translate(0.000000,1024.000000) scale(0.100000,-0.100000)"
fill="#000000" stroke="none">
<path d="M0 7755 l0 -2485 23 0 c13 0 28 5 35 12 6 6 15 8 19 4 4 -4 1 -11 -7
-16 -8 -6 -10 -10 -5 -10 6 0 21 7 34 17 26 18 56 23 141 25 39 1 60 6 70 19
11 11 28 17 50 15 19 -1 41 3 49 8 14 11 18 12 66 15 23 1 27 3 15 11 -13 8
-12 10 3 10 9 0 17 -4 17 -10 0 -5 8 -6 17 -3 13 5 15 2 10 -11 -4 -10 -3 -15
3 -11 6 4 9 14 8 23 -2 13 4 16 32 14 24 -2 42 3 57 17 21 20 53 19 53 0 0 -5
11 -2 25 7 17 11 50 18 93 19 102 4 105 4 99 18 -3 9 10 12 49 11 29 0 57 -3
60 -7 10 -10 26 -9 20 2 -7 11 22 36 31 27 3 -3 1 -6 -5 -6 -7 0 -12 -7 -12
-15 0 -8 5 -15 10 -15 6 0 10 4 10 9 0 5 19 11 43 14 45 5 60 9 91 22 13 6 21
4 24 -4 3 -9 9 -8 23 5 11 9 22 14 26 11 3 -4 1 -7 -6 -7 -7 0 -9 -4 -6 -10 3
-5 1 -10 -6 -10 -7 0 -10 -3 -7 -6 4 -3 16 -1 27 6 14 7 21 7 21 0 0 -5 10
-10 23 -9 21 0 21 1 2 9 -19 8 -19 8 5 18 14 5 31 6 38 2 8 -3 37 -3 65 1 113
16 183 19 167 8 -12 -9 -12 -10 3 -5 10 3 21 6 23 6 3 0 3 4 0 9 -3 4 5 6 18
4 13 -3 33 0 45 6 14 8 21 8 21 1 0 -5 5 -10 10 -10 6 0 10 7 10 15 0 8 5 15
10 15 6 0 10 -5 10 -10 0 -13 32 -9 42 5 4 5 10 2 14 -8 8 -21 24 -22 24 -1 0
10 6 14 15 10 8 -3 15 -1 15 5 0 6 4 8 9 5 5 -4 23 2 40 11 25 15 34 16 51 5
16 -10 20 -10 20 2 0 8 16 16 39 20 22 3 47 13 55 22 9 8 26 14 38 12 16 -2
23 3 26 17 6 40 12 50 21 37 5 -9 14 0 26 28 10 22 22 40 27 40 4 0 8 15 8 33
0 21 7 36 19 44 11 7 22 27 26 45 4 18 11 39 15 48 8 16 44 95 79 173 11 26
21 52 21 57 0 6 11 33 25 62 14 28 25 60 25 70 0 10 4 18 8 18 4 0 14 17 21
38 8 20 19 44 26 52 7 8 18 33 25 55 7 22 18 47 25 55 6 8 21 35 33 60 24 48
113 197 131 217 6 7 11 17 11 23 0 5 3 10 8 10 4 0 13 13 20 29 7 16 26 46 43
67 16 21 28 43 25 50 -3 8 1 11 10 7 7 -3 14 -1 14 4 0 11 35 55 78 98 17 18
32 38 32 43 0 6 13 23 30 39 16 15 30 33 30 38 0 6 20 32 45 57 25 26 45 46
45 44 0 -1 36 33 80 75 43 42 82 74 85 71 3 -3 5 0 5 7 0 7 5 9 12 5 7 -4 8
-3 4 4 -4 6 16 28 46 52 29 22 58 45 65 50 7 6 16 10 21 10 5 0 28 18 53 41
43 39 85 64 102 60 5 -1 6 3 2 9 -3 5 2 13 11 17 17 6 42 24 69 51 8 6 21 12
29 12 9 0 16 5 16 10 0 6 9 10 20 10 11 0 20 5 20 10 0 6 12 16 28 22 44 18
157 73 162 78 13 14 134 70 151 70 11 0 17 5 14 10 -3 6 1 10 10 10 8 0 23 4
33 9 48 26 143 59 182 65 25 4 54 11 65 16 35 15 105 28 99 19 -3 -5 0 -9 5
-9 6 0 11 4 11 9 0 7 66 30 110 37 71 12 167 26 225 34 39 5 90 12 115 16 81
11 530 8 542 -4 6 -6 17 -8 26 -5 11 5 13 3 7 -7 -6 -10 -1 -12 22 -7 16 3 49
1 72 -4 57 -13 99 -20 136 -22 17 -1 36 -6 43 -10 6 -5 12 -6 12 -3 0 3 15 -1
34 -9 18 -8 36 -12 39 -9 3 3 20 -1 39 -9 59 -26 138 -48 150 -41 6 4 8 3 5
-3 -7 -11 34 -27 66 -26 10 0 15 -2 12 -5 -3 -3 41 -23 98 -45 114 -45 363
-170 447 -225 159 -103 214 -142 310 -220 291 -237 570 -569 720 -857 41 -78
46 -94 38 -122 -5 -18 -14 -33 -20 -33 -7 0 -3 -6 7 -14 21 -15 14 -46 -11
-46 -13 0 -15 -9 -14 -47 4 -80 1 -115 -10 -108 -6 4 -6 -5 1 -22 83 -212 136
-405 171 -623 20 -126 23 -181 23 -425 0 -221 -4 -304 -18 -395 -24 -154 -87
-411 -132 -540 -184 -525 -557 -1007 -1030 -1326 -153 -103 -251 -158 -395
-222 -381 -168 -697 -233 -1147 -236 -127 0 -230 -3 -228 -4 2 -2 22 -6 45 -8
43 -4 89 -23 60 -24 -8 0 -2 -8 13 -16 24 -13 27 -20 22 -43 -5 -23 -2 -29 14
-34 14 -3 18 -11 14 -26 -11 -42 15 -51 154 -51 372 0 752 78 1088 223 342
147 612 332 886 606 184 184 261 277 384 461 156 234 265 473 349 764 101 349
132 596 122 991 -4 143 -8 280 -10 305 -3 25 -2 33 1 17 2 -15 9 -25 14 -22 5
4 9 1 9 -5 0 -6 4 -9 8 -6 5 3 15 -4 22 -15 8 -10 22 -19 32 -19 10 0 18 -6
18 -12 0 -9 4 -8 10 2 7 11 10 11 10 2 0 -10 5 -10 22 -1 18 10 20 9 15 -5 -5
-13 -3 -16 12 -11 10 3 24 -1 31 -10 9 -11 22 -14 37 -10 18 4 29 0 42 -17 16
-19 21 -20 34 -9 13 10 23 10 53 1 20 -7 56 -10 80 -7 41 4 60 -5 32 -16 -7
-2 -9 -8 -5 -13 4 -5 12 -3 16 4 4 7 15 10 23 7 9 -4 19 -2 22 3 8 14 56 2 56
-14 0 -8 5 -14 10 -14 6 0 10 5 10 10 0 6 5 10 11 10 5 0 8 -4 5 -8 -2 -4 3
-8 12 -9 9 0 55 -3 102 -6 88 -5 240 -35 240 -48 0 -4 13 -4 29 1 24 7 31 5
34 -8 4 -14 5 -14 6 2 1 16 7 18 37 13 20 -3 44 -13 54 -22 9 -8 25 -13 34 -9
11 4 16 1 16 -11 0 -13 3 -15 12 -7 18 15 130 14 140 -1 6 -9 10 -9 17 2 7 11
9 11 13 0 3 -10 24 -14 71 -14 37 0 67 -2 67 -6 0 -9 34 -7 48 4 6 5 12 5 12
0 0 -5 14 -10 32 -11 18 -2 36 -8 40 -15 6 -9 8 -9 8 1 0 7 5 10 11 7 18 -12
63 -13 76 -3 8 6 10 4 7 -9 -4 -13 1 -19 15 -20 15 -1 18 3 14 15 -6 15 -3 14
15 -2 12 -11 22 -14 22 -9 0 11 31 12 40 2 10 -13 68 -20 75 -10 9 16 41 13
77 -5 17 -9 45 -17 62 -19 17 -2 40 -5 51 -7 20 -3 20 3 23 2485 l2 2487
-5120 0 -5120 0 0 -2485z"/>
<path d="M4935 7914 c-400 -55 -639 -126 -941 -279 -340 -173 -623 -398 -861
-685 -293 -351 -492 -745 -587 -1156 -119 -516 -69 -1153 125 -1609 45 -107
152 -309 222 -420 250 -396 636 -749 1045 -954 259 -130 586 -233 879 -278
159 -24 606 -24 768 0 313 46 562 125 847 268 561 281 1030 796 1266 1389 242
608 254 1348 31 1948 -165 444 -429 825 -791 1138 -370 320 -802 523 -1313
616 -89 17 -161 21 -385 23 -151 2 -288 1 -305 -1z m323 -311 c17 -19 22 -33
17 -52 -8 -34 -50 -71 -81 -71 -54 0 -95 80 -61 122 35 44 86 45 125 1z m-313
-8 c29 -28 33 -80 10 -111 -11 -15 -14 -61 -15 -231 l0 -213 255 0 255 0 0
214 c0 178 -3 216 -15 226 -8 7 -15 28 -15 47 0 43 46 93 85 93 34 0 85 -50
85 -83 0 -13 -9 -36 -20 -50 -19 -23 -20 -40 -20 -244 l0 -218 108 -114 107
-114 -3 309 c-1 185 -6 312 -12 318 -17 17 -11 72 11 100 27 34 82 36 116 4
27 -25 32 -88 8 -112 -13 -13 -15 -83 -15 -512 l0 -497 68 -76 c37 -41 171
-187 297 -324 127 -137 258 -281 292 -320 l63 -72 0 -242 0 -241 -31 -7 c-22
-5 -34 -3 -40 6 -6 10 -9 3 -10 -21 0 -19 -4 -46 -8 -60 -4 -14 -10 100 -14
253 l-7 278 -218 237 c-428 465 -476 521 -489 565 -6 23 -12 93 -12 156 l-1
114 -64 71 c-35 39 -94 104 -132 144 l-69 72 -300 0 -300 0 -142 -150 -143
-151 0 -104 c0 -121 15 -96 -180 -305 -69 -74 -170 -184 -224 -245 -118 -131
-231 -249 -286 -299 l-40 -36 -124 0 c-69 0 -126 -3 -128 -7 -2 -5 -2 -59 0
-120 l4 -113 273 0 274 0 37 68 c21 37 86 148 144 247 153 258 319 546 373
646 117 217 225 311 392 340 79 14 173 1 251 -35 86 -40 196 -157 264 -281 30
-55 140 -251 245 -435 106 -184 222 -391 260 -460 67 -123 147 -267 272 -487
34 -62 63 -121 63 -133 0 -11 5 -20 10 -20 6 0 3 -11 -6 -25 -8 -13 -13 -29
-9 -35 7 -11 -25 -100 -36 -100 -4 0 -12 -14 -19 -31 -8 -18 -18 -28 -26 -25
-20 8 -17 -11 4 -24 13 -9 14 -10 1 -7 -14 4 -52 -27 -54 -43 0 -3 -4 -4 -8
-2 -4 1 -10 -5 -13 -13 -3 -8 -10 -13 -14 -10 -5 3 -6 -4 -3 -16 4 -15 0 -22
-17 -26 -22 -6 -22 -7 -4 -21 17 -13 16 -13 -16 -7 -57 11 -76 30 -126 122
-47 88 -238 426 -469 833 -230 405 -421 745 -451 802 -22 44 -32 55 -40 45 -6
-7 -81 -136 -166 -287 -640 -1136 -823 -1459 -840 -1483 -38 -53 -57 -57 -297
-57 -204 0 -221 1 -230 18 -8 15 15 60 120 236 71 119 129 221 129 226 0 6
-168 10 -471 10 -456 0 -472 -1 -496 -20 -54 -42 -136 -11 -149 56 -5 26 0 38
24 65 25 28 37 34 70 34 24 0 48 -7 59 -18 18 -16 60 -17 526 -17 l507 0 19
38 c11 21 42 76 70 123 28 46 51 89 51 95 0 7 -177 9 -577 6 -486 -3 -585 -6
-620 -19 -35 -13 -45 -13 -69 -1 -58 27 -69 94 -22 138 26 24 90 27 108 5 11
-13 57 -15 305 -15 l292 0 7 61 c3 34 6 86 6 115 0 36 4 55 13 56 6 1 -121 5
-283 8 -227 4 -300 2 -315 -7 -11 -7 -37 -13 -58 -13 -30 0 -46 7 -69 30 -26
27 -30 36 -25 68 8 48 47 82 93 82 38 0 83 -19 103 -44 12 -14 50 -16 272 -16
l259 0 1 73 c0 39 4 96 8 125 l7 52 -225 2 c-124 2 -254 3 -289 2 l-63 -1 7
31 c12 58 -6 56 425 56 l399 0 0 84 c0 46 3 98 6 115 l7 32 -304 -1 c-167 -1
-312 -1 -321 -1 -30 1 -58 38 -58 77 0 47 13 69 49 83 24 10 34 10 60 -3 17
-9 33 -27 37 -41 l6 -25 349 0 c192 0 349 -3 349 -8 0 -4 -8 -14 -17 -23 -10
-8 -33 -32 -51 -53 -27 -31 -36 -36 -47 -26 -8 7 -15 9 -16 4 0 -5 -2 -44 -3
-86 -10 -205 -18 -218 -141 -218 l-86 0 3 -122 3 -123 106 -3 107 -3 103 113
c57 62 134 143 172 180 l67 68 -1 224 c-1 224 -1 224 -23 230 -13 3 -44 24
-69 47 -115 101 -92 266 48 340 l45 24 0 157 c0 96 -4 158 -10 158 -16 0 -39
56 -33 81 9 36 42 68 78 75 89 16 150 -93 83 -147 -20 -15 -21 -26 -19 -175 1
-135 4 -161 18 -169 41 -26 86 -72 105 -108 45 -89 6 -216 -82 -266 l-40 -22
0 -167 0 -167 24 25 c13 14 65 69 115 124 l91 98 0 463 c0 390 -2 464 -14 474
-23 20 -29 66 -12 99 17 34 33 42 82 42 68 0 109 -80 70 -136 -12 -17 -15 -80
-18 -323 l-3 -303 112 118 112 119 1 213 c0 199 -1 216 -20 239 -46 59 -8 143
65 143 25 0 44 -8 60 -25z m1229 -159 c70 -29 86 -95 36 -148 l-30 -31 -1
-271 c-1 -149 -5 -255 -9 -236 -4 19 -8 26 -9 15 0 -11 -10 -26 -21 -33 -18
-11 -20 -23 -20 -119 0 -76 -3 -104 -11 -96 -7 7 -12 140 -16 384 -5 344 -7
376 -24 398 -35 44 -16 114 36 137 37 16 30 16 69 0z m-2216 -212 c26 -29 27
-45 7 -83 -24 -46 -74 -55 -119 -20 -44 34 -34 102 18 125 38 16 64 10 94 -22z
m2652 -19 c103 -53 134 -190 64 -283 -34 -44 -73 -62 -134 -62 -83 0 -144 39
-175 113 -29 70 -9 154 51 208 53 48 129 58 194 24z m-2926 -176 c38 -18 51
-60 32 -98 -29 -55 -108 -53 -135 4 -12 25 -12 32 0 54 13 23 52 50 71 51 4 0
18 -5 32 -11z m-220 -220 c52 -41 18 -139 -49 -139 -14 0 -37 11 -50 25 -71
70 21 176 99 114z m3561 -4 c14 -13 25 -36 25 -50 0 -32 -44 -75 -77 -75 -32
0 -73 42 -73 75 0 14 11 37 25 50 13 14 36 25 50 25 14 0 37 -11 50 -25z
m-350 -170 c87 -51 130 -154 106 -259 -31 -140 -193 -215 -326 -152 -58 27
-84 53 -116 116 -20 37 -24 60 -23 128 l1 82 -41 1 c-83 2 -94 17 -14 18 73 1
80 3 127 38 69 51 105 63 178 59 45 -3 75 -11 108 -31z m555 -143 c11 -13 20
-36 20 -49 0 -33 -51 -83 -85 -83 -26 0 -75 39 -75 60 0 6 -37 10 -99 10 -102
0 -135 5 -125 21 3 5 54 9 114 9 101 0 109 1 115 21 8 25 58 48 91 41 13 -2
33 -16 44 -30z m-356 -999 c-3 -57 -3 -103 0 -103 3 0 87 79 187 175 100 96
189 175 198 175 14 0 -618 -630 -640 -638 -5 -2 -9 2 -9 10 0 7 56 69 125 138
l125 125 2 320 1 320 9 -210 c4 -115 5 -256 2 -312z m-1614 227 c29 -53 -5
-114 -63 -114 -61 0 -93 50 -71 109 18 45 111 48 134 5z m2315 -305 c51 -50
18 -135 -52 -135 -39 0 -83 37 -83 70 0 19 -6 20 -140 20 -87 0 -140 4 -140
10 0 6 53 10 140 10 135 0 140 1 164 25 33 33 79 33 111 0z m-2041 -94 c36
-34 219 -358 212 -376 -8 -22 -1104 -23 -1112 -1 -3 8 23 63 59 123 36 59 82
139 103 177 62 110 52 107 411 104 301 -3 301 -3 327 -27z m2044 -287 c68 -76
-41 -182 -113 -109 -14 13 -25 33 -25 43 0 18 -10 20 -110 27 -60 4 -110 11
-110 15 0 4 47 5 103 3 94 -5 105 -4 123 14 47 49 92 51 132 7z m-358 10 c0
-4 -30 -34 -67 -67 -38 -34 -146 -137 -241 -231 -158 -155 -201 -189 -173
-139 14 26 374 378 424 414 39 28 57 35 57 23z m-2287 -279 l27 -5 0 -540 0
-540 -23 0 c-13 0 -28 5 -34 11 -8 8 -13 -93 -18 -356 -6 -295 -5 -369 5 -375
10 -6 7 -15 -12 -39 -15 -17 -28 -36 -31 -43 -2 -7 -8 -9 -13 -5 -5 4 2 27 14
50 22 42 22 43 21 552 -1 281 -4 535 -8 566 l-6 57 -152 -161 -153 -161 -2
-441 c-2 -343 -4 -393 -8 -225 -3 118 -3 323 0 455 l5 240 163 175 163 175 -6
261 c-7 290 -2 363 24 358 9 -1 28 -5 44 -9z m355 -1 c9 -3 12 -193 12 -906 0
-733 3 -910 14 -942 7 -21 11 -47 8 -58 -6 -25 -50 -58 -76 -58 -57 0 -94 75
-62 125 14 22 16 114 16 939 l0 915 38 -5 c20 -3 43 -7 50 -10z m-1718 -34 c0
-17 -46 -20 -365 -20 -283 0 -334 -2 -345 -15 -17 -20 -30 -19 -30 3 0 42 9
43 382 41 197 -1 358 -5 358 -9z m1960 -712 c0 -358 -2 -649 -5 -647 -2 3 -6
100 -7 217 l-3 212 -27 0 c-22 0 -28 -5 -29 -22 l0 -23 -10 23 c-12 31 -4 42
32 42 l29 0 2 158 c0 86 0 280 -2 431 -2 201 0 272 9 267 8 -5 11 -185 11
-658z m257 522 c3 -36 8 -57 11 -47 2 13 9 16 24 11 28 -9 37 10 40 81 1 33 4
-40 7 -161 5 -200 8 -224 25 -243 19 -21 24 -21 479 -21 l460 0 180 180 181
180 143 0 c108 0 151 4 173 15 33 17 48 5 24 -19 -13 -13 -42 -16 -165 -16
-83 0 -159 -4 -169 -10 -29 -15 -320 -330 -320 -346 0 -8 10 -14 23 -14 16 0
18 -3 9 -9 -8 -4 -12 -12 -10 -17 1 -5 -15 -18 -37 -29 -38 -19 -60 -20 -510
-20 -452 0 -471 1 -504 20 -19 11 -43 33 -55 48 -20 27 -21 41 -22 285 -1 141
0 244 2 227 2 -16 7 -59 11 -95z m-2822 35 c30 -30 32 -64 4 -99 -42 -54 -139
-21 -139 48 0 69 85 102 135 51z m423 -41 c30 -32 33 -40 28 -75 -20 -133 -28
-109 70 -209 l88 -90 320 -2 c223 -1 294 -3 231 -9 -49 -4 -199 -7 -333 -8
l-242 -1 -6 -30 c-4 -16 -12 -30 -18 -30 -6 0 -57 46 -114 103 -97 97 -102
104 -102 145 0 38 -3 43 -34 56 -61 26 -81 78 -51 136 35 68 108 74 163 14z
m3842 -463 c-39 -49 -247 -244 -277 -259 -26 -14 -1279 -17 -1287 -3 -10 16
187 22 667 21 265 -1 513 -1 551 -1 l69 1 142 140 c137 135 200 182 135 101z
m-3030 -67 c0 -56 1 -59 60 -131 6 -7 10 -108 10 -247 l0 -235 29 -15 c41 -22
79 -70 92 -118 45 -168 -129 -298 -272 -203 -123 81 -111 258 22 326 l39 19 0
330 c0 213 4 330 10 330 6 0 10 -25 10 -56z m-727 -257 c18 -18 19 -18 40 11
28 40 102 88 154 102 81 21 196 -25 246 -97 37 -54 47 -86 47 -149 0 -70 -18
-113 -70 -162 -141 -138 -374 -65 -415 128 -6 27 -39 67 -146 176 -132 135
-155 162 -126 151 7 -2 22 3 34 13 l22 17 -40 39 c-21 21 -39 42 -39 48 0 5
62 -51 137 -125 75 -74 146 -142 156 -152z m2752 -175 c45 -27 68 -75 68 -142
-1 -65 -19 -106 -62 -143 -85 -71 -234 -20 -263 89 l-12 44 -151 0 c-82 0
-157 5 -165 10 -10 6 41 10 152 10 l168 0 15 37 c45 107 157 149 250 95z"/>
<path d="M4169 6821 c-20 -20 -29 -39 -29 -61 0 -37 47 -90 80 -90 32 0 80 53
80 88 0 44 -9 61 -41 77 -40 21 -57 19 -90 -14z"/>
<path d="M6479 6511 c-33 -33 -39 -45 -39 -81 0 -34 6 -48 34 -76 38 -38 86
-45 135 -19 29 14 61 68 61 102 0 29 -36 81 -69 98 -49 25 -79 19 -122 -24z"/>
<path d="M3665 3731 c-54 -33 -70 -59 -70 -113 0 -44 4 -53 37 -84 28 -25 47
-34 73 -34 143 0 188 182 59 236 -44 18 -63 18 -99 -5z"/>
<path d="M6380 1989 c-1001 -39 -1331 -68 -1467 -131 -45 -21 -48 -25 -35 -46
33 -52 371 -97 912 -122 550 -26 2025 6 2300 49 36 6 84 12 107 15 23 3 50 9
60 14 10 5 38 10 63 11 24 1 52 9 61 17 8 8 18 11 22 8 3 -3 15 3 27 14 l21
19 -36 32 c-20 17 -41 29 -46 25 -5 -3 -15 -2 -22 3 -41 31 -439 74 -802 88
-268 10 -948 12 -1165 4z"/>
</g>
</svg>
